<mxfile host="Electron" modified="2023-07-31T23:28:18.629Z" agent="Mozilla/5.0 (Windows NT 10.0; Win64; x64) AppleWebKit/537.36 (KHTML, like Gecko) draw.io/21.1.2 Chrome/106.0.5249.199 Electron/21.4.3 Safari/537.36" etag="sQQ65kVt3J763fKryrDj" version="21.1.2" type="device">
  <diagram name="Page-1" id="HQLCPHOoy47ob22BZYkr">
    <mxGraphModel dx="941" dy="692" grid="1" gridSize="10" guides="1" tooltips="1" connect="1" arrows="1" fold="1" page="1" pageScale="1" pageWidth="850" pageHeight="1100" math="0" shadow="0">
      <root>
        <mxCell id="0" />
        <mxCell id="1" parent="0" />
        <mxCell id="ZPeey3Y5oscSQJRh8nPQ-1" value="" style="whiteSpace=wrap;html=1;aspect=fixed;" parent="1" vertex="1">
          <mxGeometry x="120" y="55" width="635" height="635" as="geometry" />
        </mxCell>
        <mxCell id="ZPeey3Y5oscSQJRh8nPQ-2" value="&lt;b&gt;Kerangaka Berfikir&lt;br&gt;Sistem Berjalan&lt;br&gt;&lt;/b&gt;" style="text;html=1;align=center;verticalAlign=middle;resizable=0;points=[];autosize=1;strokeColor=none;fillColor=none;" parent="1" vertex="1">
          <mxGeometry x="360" y="15" width="130" height="40" as="geometry" />
        </mxCell>
        <mxCell id="NhY5ZI--tglx_QXhOlJH-18" style="edgeStyle=orthogonalEdgeStyle;rounded=0;orthogonalLoop=1;jettySize=auto;html=1;" edge="1" parent="1" source="NhY5ZI--tglx_QXhOlJH-10" target="NhY5ZI--tglx_QXhOlJH-15">
          <mxGeometry relative="1" as="geometry">
            <Array as="points">
              <mxPoint x="260" y="410" />
            </Array>
          </mxGeometry>
        </mxCell>
        <mxCell id="NhY5ZI--tglx_QXhOlJH-24" style="edgeStyle=orthogonalEdgeStyle;rounded=0;orthogonalLoop=1;jettySize=auto;html=1;" edge="1" parent="1" source="NhY5ZI--tglx_QXhOlJH-10" target="NhY5ZI--tglx_QXhOlJH-11">
          <mxGeometry relative="1" as="geometry" />
        </mxCell>
        <mxCell id="NhY5ZI--tglx_QXhOlJH-10" value="Petugas PPDB&lt;br&gt;( &lt;i&gt;sebagai user yang mendata &lt;/i&gt;)" style="rounded=1;whiteSpace=wrap;html=1;" vertex="1" parent="1">
          <mxGeometry x="200" y="110" width="120" height="60" as="geometry" />
        </mxCell>
        <mxCell id="NhY5ZI--tglx_QXhOlJH-25" style="edgeStyle=orthogonalEdgeStyle;rounded=0;orthogonalLoop=1;jettySize=auto;html=1;" edge="1" parent="1" source="NhY5ZI--tglx_QXhOlJH-11" target="NhY5ZI--tglx_QXhOlJH-15">
          <mxGeometry relative="1" as="geometry" />
        </mxCell>
        <mxCell id="NhY5ZI--tglx_QXhOlJH-11" value="FROM PENDAFTARAN" style="rounded=0;whiteSpace=wrap;html=1;" vertex="1" parent="1">
          <mxGeometry x="395" y="220" width="120" height="60" as="geometry" />
        </mxCell>
        <mxCell id="NhY5ZI--tglx_QXhOlJH-21" style="edgeStyle=orthogonalEdgeStyle;rounded=0;orthogonalLoop=1;jettySize=auto;html=1;entryX=1;entryY=0.5;entryDx=0;entryDy=0;" edge="1" parent="1" source="NhY5ZI--tglx_QXhOlJH-12" target="NhY5ZI--tglx_QXhOlJH-11">
          <mxGeometry relative="1" as="geometry" />
        </mxCell>
        <mxCell id="NhY5ZI--tglx_QXhOlJH-12" value="pendaftaran ofline" style="rounded=0;whiteSpace=wrap;html=1;" vertex="1" parent="1">
          <mxGeometry x="580" y="220" width="120" height="60" as="geometry" />
        </mxCell>
        <mxCell id="NhY5ZI--tglx_QXhOlJH-19" style="edgeStyle=orthogonalEdgeStyle;rounded=0;orthogonalLoop=1;jettySize=auto;html=1;" edge="1" parent="1" source="NhY5ZI--tglx_QXhOlJH-14" target="NhY5ZI--tglx_QXhOlJH-12">
          <mxGeometry relative="1" as="geometry" />
        </mxCell>
        <mxCell id="NhY5ZI--tglx_QXhOlJH-14" value="Calon SIswa" style="rounded=1;whiteSpace=wrap;html=1;" vertex="1" parent="1">
          <mxGeometry x="580" y="100" width="120" height="60" as="geometry" />
        </mxCell>
        <mxCell id="NhY5ZI--tglx_QXhOlJH-23" value="input data" style="edgeStyle=orthogonalEdgeStyle;rounded=0;orthogonalLoop=1;jettySize=auto;html=1;entryX=0.078;entryY=0.109;entryDx=0;entryDy=0;entryPerimeter=0;fontStyle=2" edge="1" parent="1" source="NhY5ZI--tglx_QXhOlJH-15" target="NhY5ZI--tglx_QXhOlJH-16">
          <mxGeometry relative="1" as="geometry">
            <Array as="points">
              <mxPoint x="417" y="460" />
              <mxPoint x="417" y="460" />
            </Array>
          </mxGeometry>
        </mxCell>
        <mxCell id="NhY5ZI--tglx_QXhOlJH-15" value="PEMBERKASAN" style="rounded=0;whiteSpace=wrap;html=1;" vertex="1" parent="1">
          <mxGeometry x="395" y="380" width="120" height="60" as="geometry" />
        </mxCell>
        <mxCell id="NhY5ZI--tglx_QXhOlJH-22" value="&lt;i&gt;output data&lt;/i&gt;" style="edgeStyle=orthogonalEdgeStyle;rounded=0;orthogonalLoop=1;jettySize=auto;html=1;entryX=0.871;entryY=1.067;entryDx=0;entryDy=0;entryPerimeter=0;dashed=1;" edge="1" parent="1" source="NhY5ZI--tglx_QXhOlJH-16" target="NhY5ZI--tglx_QXhOlJH-15">
          <mxGeometry relative="1" as="geometry">
            <Array as="points">
              <mxPoint x="500" y="500" />
              <mxPoint x="500" y="500" />
            </Array>
          </mxGeometry>
        </mxCell>
        <mxCell id="NhY5ZI--tglx_QXhOlJH-16" value="Pemberkasan Manual" style="shape=cylinder3;whiteSpace=wrap;html=1;boundedLbl=1;backgroundOutline=1;size=15;" vertex="1" parent="1">
          <mxGeometry x="410" y="520" width="90" height="110" as="geometry" />
        </mxCell>
      </root>
    </mxGraphModel>
  </diagram>
</mxfile>
